<svg id="eoPndJrE9ZQ1" xmlns="http://www.w3.org/2000/svg" xmlns:xlink="http://www.w3.org/1999/xlink" viewBox="0 0 160 160" shape-rendering="geometricPrecision" text-rendering="geometricPrecision" project-id="9e59e694ab29449f9c9737eacda7ccea" export-id="481dc5a2ddc2403385f63f528935e42d" cached="false">
<style><![CDATA[
#eoPndJrE9ZQ4_ts {animation: eoPndJrE9ZQ4_ts__ts 2200ms linear infinite normal forwards}@keyframes eoPndJrE9ZQ4_ts__ts { 0% {transform: translate(50.371674px,49.424931px) scale(1,1);animation-timing-function: cubic-bezier(0.42,0,0.58,1)} 21.818182% {transform: translate(50.371674px,49.424931px) scale(1.2,1.2);animation-timing-function: cubic-bezier(0.42,0,0.58,1)} 36.363636% {transform: translate(50.371674px,49.424931px) scale(1,1)} 100% {transform: translate(50.371674px,49.424931px) scale(1,1)}}
]]></style>
<g transform="matrix(1.638599 0 0 1.638599-1.116713 0.419473)"><circle r="48.5662" transform="translate(49.5037 48.5662)" fill="#f7f7ee"/><g id="eoPndJrE9ZQ4_ts" transform="translate(50.371674,49.424931) scale(1,1)"><g transform="translate(-50.371674,-49.424931)" clip-path="url(#eoPndJrE9ZQ7)"><g><path d="M36.7276,44.5686c-1.0004,0-1.7774-.9033-1.6009-1.8875.5811-3.2391,2.195-6.25,4.6215-8.5243c3.1323-2.938,7.2229-4.403,11.5352-4.123c8.1277.5245,14.4765,7.6001,14.3567,16.0532-.0648,4.5616-3.8672,8.1957-8.4304,8.1957h-4.7462c-.5828.5601-1.3695.9081-2.2404.9081-1.7887,0-3.2375-1.4487-3.2375-3.2375c0-1.7887,1.4488-3.2375,3.2375-3.2375c1.4699,0,2.6969.9859,3.0918,2.3294h3.8948c2.8101,0,5.1621-2.2387,5.1929-5.0472.0745-6.7114-4.9291-12.3171-11.328-12.7315-3.3978-.2104-6.6385.9356-9.1136,3.2553-1.957,1.834-3.218,4.1828-3.66,6.7631-.1295.7544-.8093,1.2869-1.5734,1.2869v-.0032Zm13.536,12.95c-5.9813,0-11.1564,3.7102-12.8772,9.2301-.1537.4921-.0647,1.0279.2412,1.4423s.79.6589,1.3047.6589h22.6625c.5148,0,.9988-.2445,1.3048-.6589s.3949-.9502.2411-1.4423c-1.7207-5.5199-6.8958-9.2301-12.8771-9.2301Zm4.7494-9.7125h3.8105c.2186-.7721.3432-1.5848.3432-2.4281c0-4.9178-3.9853-8.9031-8.9031-8.9031s-8.9031,3.9853-8.9031,8.9031c0,2.4135.9647,4.5988,2.5236,6.203.1959-3.3443,2.9445-6.0039,6.339-6.0039c1.928,0,3.6276.8757,4.7915,2.229h-.0016Z" fill="#7d8035"/></g><clipPath id="eoPndJrE9ZQ7"><rect width="38.849998" height="38.849998" rx="0" ry="0" transform="translate(30.835899 30)" fill="#fff"/></clipPath></g></g></g></svg>
