<svg id="eAKh3u6YrEd1" xmlns="http://www.w3.org/2000/svg" xmlns:xlink="http://www.w3.org/1999/xlink" viewBox="0 0 160 160" shape-rendering="geometricPrecision" text-rendering="geometricPrecision" project-id="146647afac754076a686032d34863e5b" export-id="29475144b66146a6b8709f35f9fd6675" cached="false">
<style><![CDATA[
#eAKh3u6YrEd7_tr {animation: eAKh3u6YrEd7_tr__tr 4000ms linear infinite normal forwards}@keyframes eAKh3u6YrEd7_tr__tr { 0% {transform: translate(34.618996px,34.375402px) rotate(0deg);animation-timing-function: cubic-bezier(0.42,0,0.58,1)} 50% {transform: translate(34.618996px,34.375402px) rotate(180deg);animation-timing-function: cubic-bezier(0.42,0,0.58,1)} 100% {transform: translate(34.618996px,34.375402px) rotate(0deg)}}
]]></style>
<g transform="matrix(2.273744 0 0 2.273744 0.41896 0.41896)"><circle r="35" transform="translate(35 35)" fill="#f7f7ee"/><g clip-path="url(#eAKh3u6YrEd13)"><g><path d="M27.5,37.8671v-5.4579c.009-.511-.3173-.9678-.8036-1.125-.0284-.0043-.0563-.0111-.0835-.0204-.0422-.007-.0848-.0116-.1275-.0139-.2939-.0156-.5812.0904-.7946.293s-.3341.4842-.3337.7784v5.8929c0,.2959-.2398.5357-.5357.5357s-.5357-.2398-.5357-.5357v-5.8179c-.0104-.517.1587-1.0217.4784-1.4282.4355-.5392,1.1063-.8324,1.7979-.7859l3.9016-4.6607c.1841-.2197.2731-.5036.2475-.789-.0256-.2855-.1639-.549-.3841-.7324-.4283-.3521-1.0523-.3277-1.4518.0568l-6.8057,6.6852c-.2853.2797-.451.6591-.4624,1.0585v10.6993c0,.675-1.0039,2.7123-1.5492,3.7693-.0385.0745-.0583.1572-.0579.2411v2.9539c0,.2959.2399.5357.5357.5357h3.6054c.2095.0015.4003-.1205.4869-.3112.0847-.1875.1704-.3825.2561-.577.2754-.7785.6685-1.5103,1.1657-2.1696c1.7016-1.5955,2.6225-3.8539,2.5216-6.1843-.0343-.7097-.2996-1.3888-.7553-1.934-.2082-.2752-.3194-.6116-.3161-.9567Z" clip-rule="evenodd" fill="#7d8035" fill-rule="evenodd"/><g id="eAKh3u6YrEd7_tr" transform="translate(34.618996,34.375402) rotate(0)"><g transform="translate(-34.618996,-34.375402)" clip-path="url(#eAKh3u6YrEd10)"><g><path d="M39.66,34.3753c2.8296-1.7124.4428-5.9887-2.5209-4.3725-.0991-3.308-4.9437-3.3063-5.0416,0-2.9408-1.6139-5.3637,2.6458-2.5209,4.3404-2.8353,1.7389-.4583,5.8501,2.5209,4.4069.1031,3.3058,4.9396,3.3029,5.0416,0c2.9574,1.4421,5.3694-2.656,2.5209-4.3748ZM34.6183,36.667c-.6078,0-1.1907-.2414-1.6205-.6712-.4297-.4298-.6712-1.0127-.6712-1.6205s.2415-1.1906.6712-1.6204c.4298-.4298,1.0127-.6712,1.6205-.6712s1.1907.2414,1.6204.6712.6713,1.0126.6713,1.6204-.2415,1.1907-.6713,1.6205-1.0126.6712-1.6204.6712Zm1.1458-2.2917c0,.3039-.1207.5954-.3356.8103-.2149.2148-.5063.3356-.8102.3356s-.5954-.1208-.8102-.3356c-.2149-.2149-.3356-.5064-.3356-.8103s.1207-.5953.3356-.8102c.2148-.2149.5063-.3356.8102-.3356s.5953.1207.8102.3356.3356.5063.3356.8102Z" fill="#7d8035"/></g><clipPath id="eAKh3u6YrEd10"><rect width="13.75" height="13.75" rx="0" ry="0" transform="translate(27.75 27.5)" fill="#fff"/></clipPath></g></g><path d="M48.39,42.5006v-10.7143c-.0142-.3944-.1796-.7682-.4618-1.0441l-6.7483-6.6273c-.4283-.4228-1.108-.45-1.5686-.0627-.4081.3937-.4421,1.036-.0777,1.4705l3.9011,4.6608c.5973-.0403,1.184.1722,1.617.5856s.6724.9898.6598,1.5883v5.8575c0,.2958-.2399.5357-.5358.5357-.2958,0-.5357-.2399-.5357-.5357v-5.8929c.0004-.2943-.1202-.5757-.3336-.7784s-.5007-.3086-.7946-.293c-.0435.0027-.0867.0079-.1296.0155-.0272.0093-.0552.0161-.0836.0204-.4863.1572-.8126.614-.8036,1.125v5.4562c.0034.3448-.1073.681-.315.9563-.4557.5431-.721,1.2204-.7553,1.9286-.1032,2.3311.8164,4.5911,2.5178,6.188.4972.6594.8904,1.3911,1.1657,2.1696.0858.1945.1715.3895.2561.577.0868.1932.28.3164.4918.3134h3.6054c.2958,0,.5357-.2398.5357-.5357v-2.9539c.0005-.0841-.0194-.167-.0579-.2417-.5453-1.0569-1.5493-3.0942-1.5493-3.7687Z" clip-rule="evenodd" fill="#7d8035" fill-rule="evenodd"/></g><clipPath id="eAKh3u6YrEd13"><rect width="30" height="30" rx="0" ry="0" transform="translate(20 20)" fill="#fff"/></clipPath></g></g></svg>
