<svg id="eenC4km3UjJ1" xmlns="http://www.w3.org/2000/svg" xmlns:xlink="http://www.w3.org/1999/xlink" viewBox="0 0 160 160" shape-rendering="geometricPrecision" text-rendering="geometricPrecision" project-id="1dae9b710f9d406f85d47035aefe1491" export-id="b9260c7444944b9c9ab989ab623c1831" cached="true">
<style><![CDATA[
#eenC4km3UjJ5_to {animation: eenC4km3UjJ5_to__to 3000ms linear infinite normal forwards}@keyframes eenC4km3UjJ5_to__to { 0% {transform: translate(-12.223386px,35px);animation-timing-function: cubic-bezier(0.42,0,0.58,1)} 19.666667% {transform: translate(41.201053px,35px);animation-timing-function: cubic-bezier(0.42,0,0.58,1)} 27% {transform: translate(35px,35px);animation-timing-function: cubic-bezier(0.42,0,0.58,1)} 56.666667% {transform: translate(35px,35px);animation-timing-function: cubic-bezier(0.42,0,0.58,1)} 62.666667% {transform: translate(33.091984px,35px);animation-timing-function: cubic-bezier(0.42,0,0.58,1)} 80% {transform: translate(82.223388px,35px)} 100% {transform: translate(82.223388px,35px)}}
]]></style>
<g transform="matrix(2.096419 0 0 2.096419 7.043968 6.20669)"><circle r="35" transform="matrix(1.084589 0 0 1.084589 35 35)" fill="#f7f7ee"/><g mask="url(#eenC4km3UjJ6)"><g id="eenC4km3UjJ5_to" transform="translate(-12.223386,35)"><path d="M31.942,43c.034.162.058.328.058.5c0,1.381-1.119,2.5-2.5,2.5s-2.5-1.119-2.5-2.5c0-.172.024-.338.058-.5h4.884ZM27,41c-2.209,0-4-1.791-4-4v-8c0-2.761,2.239-5,5-5h5c2.761,0,5,2.239,5,5v12h-11Zm-.707-7.192l1.402,1.402c.562.562,1.3.843,2.039.843s1.485-.284,2.054-.852l2.928-3.003c.386-.396.378-1.029-.018-1.415-.394-.384-1.028-.377-1.414.018l-2.919,2.995c-.346.346-.91.346-1.256,0l-1.402-1.402c-.391-.391-1.023-.391-1.414,0s-.391,1.023,0,1.414ZM40,41h3c2.209,0,4-1.791,4-4v-1h-7v5Zm2-13h-2v6h7v-1c0-2.761-2.239-5-5-5ZM38.058,43c-.034.162-.058.328-.058.5c0,1.381,1.119,2.5,2.5,2.5s2.5-1.119,2.5-2.5c0-.172-.024-.338-.058-.5h-4.884Z" transform="translate(-35,-35)" fill="#7d8035"/></g><mask id="eenC4km3UjJ6" mask-type="luminance" x="-150%" y="-150%" height="400%" width="400%"><circle r="35" transform="translate(35 35)" fill="#f7f7ee"/></mask></g></g></svg>
