<svg id="ecv5eDYmSfA1" xmlns="http://www.w3.org/2000/svg" xmlns:xlink="http://www.w3.org/1999/xlink" viewBox="0 0 160 160" shape-rendering="geometricPrecision" text-rendering="geometricPrecision" project-id="5ebd9b7ba6fa4ceaabc487fe6205306b" export-id="95a360526fa4481e9326c04d0c1a48e3" cached="false">
<style><![CDATA[
#ecv5eDYmSfA4_tr {animation: ecv5eDYmSfA4_tr__tr 4000ms linear infinite normal forwards}@keyframes ecv5eDYmSfA4_tr__tr { 0% {transform: translate(34.999986px,50px) rotate(0deg);animation-timing-function: cubic-bezier(0.42,0,0.58,1)} 7% {transform: translate(34.999986px,50px) rotate(10.349355deg);animation-timing-function: cubic-bezier(0.42,0,0.58,1)} 24.333333% {transform: translate(34.999986px,50px) rotate(-10.35deg);animation-timing-function: cubic-bezier(0.42,0,0.58,1)} 31.666667% {transform: translate(34.999986px,50px) rotate(0deg)} 100% {transform: translate(34.999986px,50px) rotate(0deg)}}
]]></style>
<g transform="matrix(2.273908 0 0 2.273908 0.41322 0.41322)"><circle r="35" transform="translate(35 35)" fill="#f7f7ee" stroke-width="0"/><g id="ecv5eDYmSfA4_tr" transform="translate(34.999986,50) rotate(0)"><g transform="translate(-34.99828,-50)" clip-path="url(#ecv5eDYmSfA7)"><g><path d="M49.4168,38.4062c-.2588-.3144-.591-.5604-.9671-.7165s-.785-.2173-1.1904-.1785c-2.3328.1367-4.586.8983-6.5233,2.2051s-3.4874,3.1106-4.4879,5.2224v-7.5437c1.7466-.2975,3.3318-1.2029,4.4755-2.5561s1.7722-3.0671,1.7745-4.8389c0-3.4913-2.4288-6.44-4.805-8.8638-.1375-.1407-.2863-.2699-.445-.3862-1.4355,2.8599-2.2047,6.0078-2.25,9.2075.0056.1641-.0212.3278-.0789.4816s-.1451.2947-.2572.4147-.2468.2168-.3963.2848c-.1495.0679-.311.1058-.4751.1114s-.3278-.0212-.4816-.0789-.2947-.1451-.4148-.2572c-.12-.1121-.2167-.2468-.2847-.3963s-.1058-.311-.1114-.4751c.0132-3.4638.8017-6.8807,2.3075-10-.941.0373-1.8334.4273-2.5,1.0925-2.3788,2.425-4.8075,5.3737-4.8075,8.865.0022,1.7718.6308,3.4857,1.7744,4.8389s2.729,2.2586,4.4756,2.5561v7.545c-1.0003-2.1122-2.5503-3.9163-4.4876-5.2233-1.9374-1.3071-4.1907-2.0688-6.5237-2.2055-.4054-.0386-.814.0228-1.1902.1789-.3761.156-.7083.4019-.9673.7161-.2573.3056-.4365.6692-.5221,1.0594s-.075.7954.0309,1.1806C22.6368,49.8187,34.4868,50,34.9906,50h.015c.5,0,12.355-.1813,14.9037-9.3538.1053-.3853.1155-.7905.0297-1.1806-.0858-.3902-.265-.7537-.5222-1.0594Z" fill="#7d8035"/></g><clipPath id="ecv5eDYmSfA7"><rect width="30" height="30" rx="0" ry="0" transform="translate(20 20)" fill="#fff"/></clipPath></g></g></g></svg>
